<svg xmlns="http://www.w3.org/2000/svg" version="1.1" xmlns:xlink="http://www.w3.org/1999/xlink" xmlns:svgjs="http://svgjs.dev/svgjs" width="100%" height="100%" viewBox="0 0 1000 600"><rect width="1000" height="600" x="0" y="0" fill="#072c50"/><g><rect width="333.3333333333333" height="333.3333333333333" rx="13.333333333333334" ry="13.333333333333334" y="191.80331487227352" fill="#209cee" transform="matrix(0.7371101992944905,0,0,0.7371101992944906,0,35.768070875674965)" x="169.58106994628903"/><path d="M345.23822989454993 283.4699909657221L363.84333998600664 283.4699909657221L333.88495185152044 430.91400240935917L307.7902447264421 430.91400240935917L280.59587454484006 307.45453384720065L253.22318062434215 430.91400240935917L227.752606585399 430.91400240935917L197.79421845091275 283.4699909657221L217.70703596093833 283.4699909657221L241.45381385722257 413.1410697660827L269.89645021109493 283.4699909657221L291.5330638637795 283.4699909657221L320.6295539269362 413.1410697660827L345.23822989454993 283.4699909657221ZM474.70126433286543 371.2052705024318Q474.70126433286543 376.1388939452142 474.2554549856261 381.2805617500417L474.2554549856261 381.2805617500417L402.3612675874889 381.2805617500417Q403.63925438290846 399.88567184149844 411.78270512581446 408.65325567053964Q419.92615586872046 417.4208394995807 432.76546506921454 417.4208394995807L432.76546506921454 417.4208394995807Q440.87919518897127 417.4208394995807 447.7446591364577 415.0729102707866Q454.58040246079486 412.7249810419925 462.0699994944164 407.5833132371651L462.0699994944164 407.5833132371651L470.62953896141244 419.35268000428465Q452.6485619560908 433.4699760001983 431.2497132886007 433.4699760001983L431.2497132886007 433.4699760001983Q407.7109797543616 433.4699760001983 394.54474369922525 418.0746932088651Q381.4082282672382 402.67941041753187 381.4082282672382 375.69308459797486L381.4082282672382 375.69308459797486Q381.4082282672382 358.1579169398927 387.0551466656036 344.5755921606662Q392.7317856871184 330.9932673814398 403.3420481514156 323.265905362624Q413.92258999256353 315.5682639669573 428.2479303505222 315.5682639669573L428.2479303505222 315.5682639669573Q450.7167214513869 315.5682639669573 462.72385320370086 330.33941367215544Q474.70126433286543 345.11056337735346 474.70126433286543 371.2052705024318L474.70126433286543 371.2052705024318ZM455.2342561700792 366.71745640688874L455.2342561700792 365.4394696114692Q455.2342561700792 348.7364794015671 448.57683658463793 339.96889557252604Q441.9491376223458 331.20131174348484 428.69373969776154 331.20131174348484L428.69373969776154 331.20131174348484Q404.50115245423797 331.20131174348484 402.3612675874889 366.71745640688874L402.3612675874889 366.71745640688874L455.2342561700792 366.71745640688874Z " fill="#ffeb3b" transform="matrix(0.7371101992944905,0,0,0.7371101992944906,0,35.768070875674965)"/><path d="M633.6866719814052 325.0029788749145Q651.4044977487723 325.0029788749145 661.8492654079299 339.27567185418235Q672.2666907433726 353.5483648334503 672.2666907433726 379.14077983075816L672.2666907433726 379.14077983075816Q672.2666907433726 395.3000931463661 667.3450724746596 407.6041388181488Q662.4234542059465 419.90818448993144 653.181748790252 426.6890807712694Q643.9400433745574 433.4699770526075 631.5266284079145 433.4699770526075L631.5266284079145 433.4699770526075Q615.1759188263011 433.4699770526075 603.9655661031213 419.68944590021084L603.9655661031213 419.68944590021084L602.1883150616416 431.1185372131112L586.2477403357542 431.1185372131112L586.2477403357542 285.63003272520996L604.3483586351323 283.46998915171923L604.3483586351323 340.36936480278524Q615.5860536820272 325.0029788749145 633.6866719814052 325.0029788749145L633.6866719814052 325.0029788749145ZM627.206541260933 419.11525710219433Q639.2098213718499 419.11525710219433 645.9907176531879 409.35404753591337Q652.798956258241 399.6201802933476 652.798956258241 379.14077983075816L652.798956258241 379.14077983075816Q652.798956258241 358.08719057015236 646.4828794800592 348.73611585959753Q640.1941450255925 339.3850411490427 628.5736574466866 339.3850411490427L628.5736574466866 339.3850411490427Q614.7931262942901 339.3850411490427 604.3483586351323 355.5170121409355L604.3483586351323 355.5170121409355L604.3483586351323 405.1433296837923Q608.5043918398234 411.62346040426445 614.4923607334242 415.3693587532294Q620.5076719507402 419.11525710219433 627.206541260933 419.11525710219433L627.206541260933 419.11525710219433ZM747.2940270175318 381.90235452598057Q741.5794813610817 381.90235452598057 737.3414211852454 380.04307651335563Q733.1033610094091 378.1564561770156 727.1974190869535 374.4105578280507L727.1974190869535 374.4105578280507Q723.6702593277091 372.0591179885544 721.2914771644978 370.88339806880623Q718.9400373250015 369.70767814905815 716.5612551617902 369.70767814905815L716.5612551617902 369.70767814905815Q708.90540452157 369.70767814905815 702.3979314773826 380.31649975050635L702.3979314773826 380.31649975050635L691.3789750202084 374.6292964177713Q701.2222115576345 355.5170121409355 718.33850620327 355.5170121409355L718.33850620327 355.5170121409355Q723.8616555937147 355.5170121409355 727.9903464746906 357.29426318241525Q732.1190373556666 359.0715142238949 737.6421867461112 362.59867398313924L737.6421867461112 362.59867398313924Q741.5794813610817 365.1688524123561 744.0402904954382 366.3445723321042Q746.5010996297948 367.52029225185237 749.0439357352965 367.52029225185237L749.0439357352965 367.52029225185237Q753.1999689399876 367.52029225185237 756.7271286992319 364.8680868514903Q760.2816307821913 362.21588145112827 762.8244668876931 358.08719057015236L762.8244668876931 358.08719057015236L773.6520270788618 363.993132492608Q764.4103216631673 381.90235452598057 747.2940270175318 381.90235452598057L747.2940270175318 381.90235452598057ZM818.9309151510221 431.1185372131112L800.2287657299124 431.1185372131112L800.2287657299124 295.4732692626361L872.3031310428438 295.4732692626361L870.1157451456379 310.4295203347808L818.9309151510221 310.4295203347808L818.9309151510221 356.69273206068357L863.2254795694397 356.69273206068357L863.2254795694397 371.45758686682285L818.9309151510221 371.45758686682285L818.9309151510221 431.1185372131112ZM916.5976954612613 433.4699770526075Q906.5357203341147 433.4699770526075 900.7391477065192 427.4820081590065Q894.9425750789238 421.4666969416906 894.9425750789238 410.6391367505218L894.9425750789238 410.6391367505218L894.9425750789238 285.63003272520996L913.0431933783019 283.46998915171923L913.0431933783019 410.25634421851083Q913.0431933783019 414.5764313654923 914.5196788589159 416.54507867297747Q915.9961643395297 418.51372598046277 919.5506664224891 418.51372598046277L919.5506664224891 418.51372598046277Q923.269222447739 418.51372598046277 926.222193408967 417.3380060607146L926.222193408967 417.3380060607146L930.9524154116745 429.942817293363Q924.4722846912022 433.4699770526075 916.5976954612613 433.4699770526075L916.5976954612613 433.4699770526075ZM992.582013065448 325.0029788749145Q1014.4285297137911 325.0029788749145 1026.5411791195684 339.57643741504813Q1038.6538285253455 354.1498959551819 1038.6538285253455 379.14077983075816L1038.6538285253455 379.14077983075816Q1038.6538285253455 395.3000931463661 1033.1306791349007 407.6041388181488Q1027.6075297444559 419.90818448993144 1017.1901044090134 426.6890807712694Q1006.7453367498557 433.4699770526075 992.3906167994426 433.4699770526075L992.3906167994426 433.4699770526075Q970.5167578273845 433.4699770526075 958.3220814504622 418.9238608361888Q946.1274050735398 404.35040229605517 946.1274050735398 379.3321760967637L946.1274050735398 379.3321760967637Q946.1274050735398 363.2002051048709 951.6232121402694 350.89615943308826Q957.146361530714 338.5921137613056 967.5637868661566 331.8112174799675Q978.0085545253145 325.0029788749145 992.582013065448 325.0029788749145L992.582013065448 325.0029788749145ZM992.582013065448 339.57643741504813Q965.5951395586716 339.57643741504813 965.5951395586716 379.3321760967637L965.5951395586716 379.3321760967637Q965.5951395586716 418.9238608361888 992.3906167994426 418.9238608361888L992.3906167994426 418.9238608361888Q1019.1587517164986 418.9238608361888 1019.1587517164986 379.14077983075816L1019.1587517164986 379.14077983075816Q1019.1587517164986 339.57643741504813 992.582013065448 339.57643741504813L992.582013065448 339.57643741504813ZM1169.7602707391184 327.38176103812583L1187.0679616507596 327.38176103812583L1163.444193960937 431.1185372131112L1138.8361026173716 431.1185372131112L1120.7354843179933 343.70512829602416L1102.0333348968838 431.1185372131112L1078.02677467505 431.1185372131112L1053.8014758634959 327.38176103812583L1071.9020941628737 327.38176103812583L1090.6042435839836 418.51372598046277L1111.0836440465728 327.38176103812583L1131.3716482431569 327.38176103812583L1150.8667250520034 418.51372598046277L1169.7602707391184 327.38176103812583Z " fill="#ffffff" transform="matrix(0.7371101992944905,0,0,0.7371101992944906,0,35.768070875674965)"/></g></svg>